<svg xmlns="http://www.w3.org/2000/svg" width="512" height="512" viewBox="0 0 512 512" version="1.1">
	<path d="M 163.500 102.684 C 159.379 103.615, 155.055 106.123, 153.010 108.768 C 143.413 121.182, 143.428 121.152, 143.555 127.678 C 143.634 131.702, 144.284 134.785, 145.423 136.522 C 146.643 138.384, 146.944 139.989, 146.421 141.844 C 146.009 143.305, 145.825 144.950, 146.011 145.500 C 146.926 148.195, 147.568 160.618, 146.836 161.450 C 145.661 162.786, 145.794 166.755, 147.041 167.525 C 147.613 167.879, 147.801 169.052, 147.458 170.132 C 147.115 171.212, 147.359 172.728, 148 173.500 C 149.189 174.933, 148.770 177.682, 146.733 181.815 C 146.023 183.256, 145.952 184.389, 146.546 184.815 C 148.110 185.938, 147.645 193.617, 145.892 195.643 C 142.333 199.752, 140.889 208.975, 143.125 213.316 C 143.744 214.517, 145.206 216.549, 146.375 217.830 C 147.544 219.112, 148.611 221.362, 148.746 222.830 C 149.572 231.820, 149.903 238.111, 149.780 242.500 C 149.702 245.250, 149.684 249.075, 149.738 251 C 149.793 252.925, 149.917 257.518, 150.015 261.207 C 150.130 265.561, 150.684 268.323, 151.596 269.080 C 153.313 270.505, 153.424 272.692, 151.806 273.231 C 150.399 273.700, 150.616 293.414, 152.058 296.108 C 152.595 297.112, 152.473 300.007, 151.748 303.467 C 150.665 308.629, 150.720 309.264, 152.331 310.165 C 153.786 310.980, 153.883 311.436, 152.863 312.665 C 152.177 313.492, 151.501 316.043, 151.362 318.334 C 151.223 320.625, 150.872 326.325, 150.582 331 C 150.292 335.675, 149.827 349.818, 149.549 362.428 C 149.250 376.004, 148.627 385.773, 148.022 386.378 C 147.460 386.940, 147 388.345, 147 389.500 C 147 390.655, 146.605 392.028, 146.121 392.550 C 144.691 394.097, 143.829 400.776, 144.969 401.481 C 145.536 401.831, 146 402.949, 146 403.964 C 146 405.163, 147.970 406.921, 151.622 408.982 C 158.289 412.745, 160.720 412.480, 165.759 407.441 C 167.652 405.548, 170.167 403.990, 171.350 403.978 C 172.591 403.966, 176.095 401.469, 179.639 398.073 C 183.015 394.837, 186.728 391.681, 187.889 391.059 C 189.050 390.438, 190 389.332, 190 388.602 C 190 387.872, 192.813 385.886, 196.250 384.189 C 199.688 382.492, 205.425 378.599, 209 375.539 C 212.575 372.479, 216.625 369.692, 218 369.346 C 224.051 367.823, 229.150 363.845, 236.095 355.228 C 236.659 354.528, 237.534 354.212, 238.039 354.524 C 239.499 355.427, 247.280 352.856, 249.750 350.656 C 250.988 349.553, 252 347.819, 252 346.801 C 252 345.758, 253.068 344.544, 254.448 344.020 C 255.794 343.508, 257.631 341.967, 258.530 340.595 C 259.428 339.223, 261.770 337.571, 263.734 336.923 C 265.697 336.275, 269.260 334.365, 271.652 332.680 C 275.091 330.256, 276 329.004, 276 326.694 C 276 323.817, 276.065 323.783, 280.321 324.421 C 283.800 324.943, 285.147 324.672, 287.229 323.034 C 288.652 321.916, 290.484 321, 291.301 321 C 292.118 321, 293.045 320.325, 293.362 319.500 C 293.678 318.675, 294.761 318, 295.769 318 C 296.776 318, 298.027 317.626, 298.550 317.169 C 301.514 314.575, 312.697 310.933, 317.083 311.133 C 320.243 311.277, 322.622 310.784, 324.170 309.664 C 329.273 305.972, 334.449 302.421, 336.910 300.923 C 338.334 300.056, 339.950 298.465, 340.500 297.387 C 341.050 296.309, 342.761 294.094, 344.303 292.464 C 346.565 290.072, 346.983 288.921, 346.469 286.500 C 346.119 284.850, 345.872 281.619, 345.921 279.320 C 345.997 275.712, 345.700 275.096, 343.754 274.820 C 341.139 274.449, 340.191 270.916, 342.249 269.208 C 343.704 268, 351.511 269.735, 352.822 271.558 C 353.195 272.076, 356.401 273.918, 359.946 275.651 C 366.717 278.960, 369.233 278.909, 373.128 275.384 C 375.230 273.481, 376.433 266.227, 374.944 264.432 C 373.558 262.763, 374.542 261, 376.859 261 C 377.817 261, 379.141 260.459, 379.801 259.799 C 380.736 258.864, 380.352 257.922, 378.070 255.549 C 376.457 253.872, 374.458 250.513, 373.628 248.084 C 372.317 244.245, 372.306 243.401, 373.549 241.627 C 374.841 239.781, 374.722 239.320, 372.302 236.793 C 370.830 235.257, 369.070 234, 368.390 234 C 367.710 234, 365.827 232.673, 364.205 231.051 C 362.583 229.429, 359.961 227.828, 358.378 227.493 C 356.795 227.158, 353.122 226.188, 350.216 225.338 C 345.784 224.042, 345.028 223.486, 345.533 221.897 C 345.983 220.479, 345.462 219.746, 343.466 218.987 C 341.999 218.429, 339.944 216.967, 338.899 215.736 C 337.131 213.654, 336.927 213.621, 335.947 215.256 C 335.174 216.545, 334.177 216.841, 332.197 216.370 C 327.954 215.360, 324 212.725, 324 210.907 C 324 208.607, 322.153 207.301, 317.736 206.476 C 313.693 205.720, 311.976 203.807, 312.736 200.903 C 313.088 199.557, 312.475 198.917, 310.355 198.414 C 305.882 197.355, 297.568 193.390, 296.093 191.612 C 294.704 189.938, 291.456 189.310, 292.442 190.907 C 292.751 191.405, 292.133 191.586, 291.071 191.308 C 290.008 191.030, 289.355 190.239, 289.619 189.549 C 290.170 188.115, 286.686 185.581, 283 184.735 C 281.625 184.420, 279.488 183.848, 278.250 183.464 C 276.390 182.888, 276 183.146, 276 184.953 C 276 186.648, 275.495 187.067, 273.750 186.820 C 272.001 186.571, 271.428 185.743, 271.175 183.100 C 270.745 178.589, 264.977 173.079, 256.485 169.067 C 252.915 167.380, 249.718 166, 249.379 166 C 249.041 166, 247.282 164.762, 245.471 163.250 C 243.660 161.738, 240.536 159.375, 238.529 158 C 236.522 156.625, 234.341 155.014, 233.681 154.420 C 233.022 153.825, 231.963 153.512, 231.329 153.724 C 230.695 153.935, 229.382 152.762, 228.410 151.118 C 226.810 148.408, 223.743 146.708, 220.164 146.546 C 219.429 146.513, 218.255 145.701, 217.554 144.743 C 216.853 143.784, 215.482 143, 214.508 143 C 210.418 143, 204.068 137.317, 205.525 134.960 C 205.817 134.487, 205.031 133.572, 203.778 132.925 C 202.525 132.279, 200.600 130.962, 199.500 129.998 C 198.400 129.035, 195.700 127.674, 193.500 126.975 C 191.300 126.276, 188.287 124.308, 186.804 122.602 C 180.913 115.824, 179.103 113.259, 178.493 110.826 C 178.142 109.430, 176.563 106.873, 174.984 105.144 C 172.124 102.012, 169.223 101.391, 163.500 102.684 M 168.200 137.200 C 167.540 137.860, 167 139.435, 167 140.700 C 167 141.965, 166.521 143, 165.937 143 C 165.339 143, 165.011 144.424, 165.187 146.250 C 165.496 149.462, 165.554 149.496, 170.175 149.175 C 174.113 148.901, 175.030 149.187, 175.993 150.988 C 176.689 152.287, 177.993 153.057, 179.319 152.952 C 183.781 152.597, 185.085 153.082, 188.868 156.500 C 190.999 158.425, 193.181 160, 193.716 160 C 194.252 160, 195.547 160.947, 196.594 162.104 C 197.641 163.261, 200.504 165.383, 202.957 166.820 C 207.876 169.703, 213.416 175.302, 211.889 175.847 C 211.301 176.057, 211.370 176.741, 212.064 177.577 C 213.022 178.731, 213.492 178.614, 214.902 176.873 L 216.592 174.786 219.546 177.256 C 221.171 178.615, 223.512 180.043, 224.750 180.431 C 225.988 180.818, 227 181.537, 227 182.028 C 227 183.497, 231.273 187.137, 234.750 188.631 C 236.683 189.461, 238 190.751, 238 191.813 C 238 193.933, 239.856 196, 241.758 196 C 242.505 196, 247.548 198.128, 252.965 200.730 C 261.583 204.869, 262.794 205.761, 262.657 207.871 C 262.459 210.906, 264.609 211.807, 265.483 209.055 C 266.406 206.146, 268.512 206.506, 271 210 C 272.175 211.650, 273.971 213, 274.991 213 C 276.012 213, 278.119 214.058, 279.673 215.352 C 281.228 216.645, 284.450 218.924, 286.832 220.416 C 289.829 222.293, 290.982 223.606, 290.571 224.676 C 290.102 225.896, 290.490 226.094, 292.410 225.612 C 295.860 224.746, 309 231.466, 309 234.097 C 309 235.354, 309.702 236, 311.066 236 C 313.753 236, 317 237.759, 317 239.214 C 317 239.843, 318.515 241.746, 320.367 243.442 C 322.815 245.684, 324.795 246.565, 327.617 246.665 C 332.400 246.835, 342.086 251.116, 343.669 253.761 C 344.918 255.848, 352.892 260.441, 353.760 259.574 C 354.507 258.827, 349.280 252.220, 346.959 250.978 C 345.882 250.402, 345 249.358, 345 248.660 C 345 247.005, 334.434 236.379, 328.808 232.375 C 326.392 230.656, 323.029 228.946, 321.334 228.573 C 319.638 228.201, 317.216 226.795, 315.951 225.448 C 314.686 224.102, 312.885 223, 311.948 223 C 311.011 223, 309.653 222.287, 308.930 221.416 C 308.207 220.544, 304.585 218.305, 300.882 216.441 C 297.179 214.576, 293.885 212.623, 293.563 212.102 C 293.241 211.580, 291.632 210.858, 289.989 210.497 C 288.345 210.136, 287 209.479, 287 209.037 C 287 208.595, 286.212 207.957, 285.250 207.618 C 284.288 207.280, 281.250 205.677, 278.500 204.055 C 275.750 202.434, 272.022 200.396, 270.216 199.526 C 268.410 198.656, 266.428 196.840, 265.813 195.489 C 265.077 193.874, 263.570 192.822, 261.412 192.418 C 259.607 192.079, 257.357 190.947, 256.410 189.901 C 255.464 188.855, 254.140 188, 253.467 188 C 252.795 188, 251.685 187.325, 251 186.500 C 250.315 185.675, 249.018 185, 248.117 185 C 247.216 185, 243.460 182.975, 239.771 180.500 C 236.081 178.025, 232.711 175.996, 232.281 175.991 C 231.852 175.986, 228.350 173.770, 224.500 171.066 C 220.650 168.361, 214.463 164.446, 210.750 162.364 C 207.037 160.282, 204 158.233, 204 157.810 C 204 157.387, 202.313 156.126, 200.250 155.008 C 198.188 153.891, 194.025 151.168, 191 148.957 C 178.179 139.589, 172.431 136, 170.250 136 C 169.782 136, 168.860 136.540, 168.200 137.200 M 188.500 140 C 188.160 140.550, 188.610 141, 189.500 141 C 190.390 141, 190.840 140.550, 190.500 140 C 190.160 139.450, 189.710 139, 189.500 139 C 189.290 139, 188.840 139.450, 188.500 140 M 177 172.922 C 177 173.430, 178.477 174.332, 180.283 174.928 C 182.088 175.524, 184.334 176.909, 185.273 178.006 C 186.212 179.103, 187.885 180, 188.990 180 C 190.096 180, 191 180.605, 191 181.345 C 191 183.455, 194.402 186, 197.222 186 C 198.632 186, 200.021 186.613, 200.308 187.361 C 200.897 188.894, 205 190.285, 205 188.952 C 205 187.742, 195.995 181, 194.379 181 C 193.646 181, 192.309 179.875, 191.408 178.500 C 190.507 177.125, 188.982 176, 188.020 176 C 187.057 176, 185.126 175.100, 183.727 174 C 181.112 171.943, 177 171.284, 177 172.922 M 265.500 190 C 265.160 190.550, 265.835 191, 267 191 C 268.165 191, 268.840 190.550, 268.500 190 C 268.160 189.450, 267.485 189, 267 189 C 266.515 189, 265.840 189.450, 265.500 190 M 205.474 192.082 C 204.960 193.703, 205.810 195.087, 209.313 198.332 C 211.788 200.624, 215.461 203.625, 217.475 205 C 219.490 206.375, 222.344 208.438, 223.819 209.585 C 228.395 213.144, 244.711 221, 247.527 221 C 248.337 221, 249 220.628, 249 220.174 C 249 218.765, 244.457 215, 242.757 215 C 241.869 215, 239.423 213.371, 237.321 211.380 C 235.220 209.389, 231.025 206.069, 228 204.002 C 224.975 201.934, 221.607 199.249, 220.517 198.035 C 217.573 194.758, 210.172 190, 208.017 190 C 206.982 190, 205.837 190.937, 205.474 192.082 M 165.446 195.435 C 164.634 199.766, 165.152 200.564, 170.311 202.915 C 172.615 203.966, 175.496 206.174, 176.714 207.823 C 177.931 209.472, 180.631 211.382, 182.714 212.068 C 184.796 212.754, 186.950 213.850, 187.500 214.503 C 188.050 215.157, 190.075 216.281, 192 217.002 C 193.925 217.722, 197.094 219.817, 199.042 221.656 C 200.990 223.495, 203.603 225, 204.849 225 C 206.094 225, 208.325 226.265, 209.806 227.811 C 214.409 232.614, 221.317 235.915, 222.559 233.905 C 223.327 232.662, 217.410 227.326, 212.326 224.676 C 208.170 222.509, 198.386 214.241, 188.158 204.250 C 185.201 201.363, 181.966 199, 180.968 199 C 179.970 199, 177.881 197.942, 176.327 196.649 C 169.540 191.003, 166.345 190.646, 165.446 195.435 M 312.154 210.438 C 312.345 211.355, 312.950 212.082, 313.500 212.053 C 314.984 211.974, 314.712 209.737, 313.154 209.218 C 312.313 208.938, 311.939 209.395, 312.154 210.438 M 250 224.500 C 250 226.611, 250.467 227, 253 227 C 256.440 227, 256.783 226.019, 254.171 223.655 C 251.561 221.292, 250 221.609, 250 224.500 M 284 223.883 C 284 224.369, 285.125 224.982, 286.500 225.245 C 289.254 225.771, 289.928 224.570, 287.418 223.607 C 285.197 222.755, 284 222.852, 284 223.883 M 165.250 235.360 C 162.224 236.858, 162.415 238.577, 165.750 239.874 C 172.418 242.466, 178.984 245.672, 180.671 247.160 C 181.677 248.047, 185.184 250.192, 188.465 251.926 C 191.746 253.660, 195.156 255.736, 196.044 256.540 C 197.809 258.137, 203.371 258.570, 202.833 257.068 C 202.650 256.556, 198.675 253.653, 194 250.616 C 189.325 247.580, 183.741 243.836, 181.592 242.298 C 179.443 240.759, 176.779 238.971, 175.673 238.323 C 174.567 237.676, 173.265 236.439, 172.781 235.573 C 171.786 233.795, 168.592 233.705, 165.250 235.360 M 242.675 235.658 C 241.692 236.641, 245.012 240, 246.968 240 C 247.880 240, 249.919 241.350, 251.500 243 C 253.374 244.956, 255.364 246, 257.218 246 C 258.783 246, 260.306 246.634, 260.604 247.410 C 260.901 248.185, 262.125 249.085, 263.322 249.409 C 264.520 249.734, 266.720 252.024, 268.212 254.499 C 269.703 256.975, 271.638 259, 272.511 259 C 275.297 259, 280.346 262.115, 285.690 267.129 C 288.545 269.808, 291.545 272, 292.357 272 C 293.169 272, 293.983 272.337, 294.167 272.750 C 294.350 273.163, 295.716 274.175, 297.203 275 C 298.690 275.825, 302.478 278.009, 305.622 279.854 C 311.931 283.556, 317.157 284.272, 319.652 281.776 C 321.623 279.805, 320.762 277, 318.186 277 C 317.154 277, 315.495 276.100, 314.500 275 C 313.505 273.900, 312.124 273, 311.432 273 C 310.741 273, 307.783 271.425, 304.860 269.500 C 301.937 267.575, 299.028 266, 298.395 266 C 297.763 266, 296.685 265.325, 296 264.500 C 295.315 263.675, 294.159 263, 293.431 263 C 292.703 263, 289.496 261.483, 286.304 259.629 C 283.112 257.775, 277.350 254.570, 273.500 252.508 C 269.650 250.445, 265.203 247.665, 263.617 246.331 C 260.163 243.425, 253.660 240, 251.597 240 C 250.781 240, 249.525 239.165, 248.807 238.143 C 247.352 236.077, 243.726 234.607, 242.675 235.658 M 268.380 236.452 C 267.624 238.422, 268.741 240, 270.892 240 C 273.634 240, 274.166 238.841, 272.347 236.831 C 270.349 234.623, 269.127 234.506, 268.380 236.452 M 215.970 252.944 C 217.247 255.330, 217.669 255.587, 221.750 256.462 C 224.356 257.021, 225 256.841, 225 255.554 C 225 254.572, 223.837 253.717, 222 253.350 C 220.350 253.020, 219 252.356, 219 251.875 C 219 251.394, 218.084 251, 216.965 251 C 215.259 251, 215.098 251.315, 215.970 252.944 M 225.542 259.932 C 225.150 260.566, 225.777 261, 227.083 261 C 228.293 261, 230.673 262.462, 232.372 264.250 C 235.837 267.896, 235.930 267.959, 245.942 273.500 C 258.556 280.480, 259.381 280.986, 265.500 285.488 C 268.800 287.916, 274.985 291.960, 279.244 294.474 C 286.280 298.629, 286.878 299.223, 285.782 300.978 C 284.377 303.227, 285.365 304.770, 287.226 303.231 C 287.927 302.651, 289.850 302.025, 291.500 301.838 C 293.943 301.563, 294.500 301.036, 294.500 299 C 294.500 296.872, 293.085 295.728, 285 291.317 C 279.775 288.466, 274.561 285.693, 273.414 285.154 C 272.267 284.615, 269.939 282.785, 268.241 281.087 C 266.543 279.389, 264.673 278, 264.085 278 C 263.498 278, 262.455 277.100, 261.768 276 C 261.081 274.900, 259.737 274, 258.782 274 C 256.794 274, 247.630 269.221, 241 264.728 C 238.525 263.050, 234.925 261.356, 233 260.964 C 231.075 260.572, 228.758 259.939, 227.851 259.557 C 226.944 259.176, 225.905 259.344, 225.542 259.932 M 156.104 267.914 C 154.214 269.111, 155.531 272.236, 157.747 271.814 C 159.814 271.420, 160.804 266.992, 158.820 267.015 C 158.094 267.024, 156.872 267.428, 156.104 267.914 M 170 269.383 C 170 270.144, 169.103 271.001, 168.006 271.288 C 166.174 271.767, 166.038 272.523, 166.322 280.655 C 166.499 285.704, 167.222 290.573, 168.007 292 C 168.764 293.375, 169.409 296.975, 169.441 300 L 169.500 305.500 174 306.144 C 176.475 306.499, 180.188 307.120, 182.250 307.525 C 186.928 308.444, 187.007 307.368, 182.578 303.075 C 180.689 301.244, 179.393 299.140, 179.685 298.379 C 180.213 297.003, 179.906 296.890, 174.787 296.575 C 171.421 296.368, 170.169 295.256, 172.357 294.417 C 173.493 293.981, 174 292.581, 174 289.883 C 174 284.899, 176.486 282.664, 182.768 282 C 188.322 281.413, 188.737 280.044, 184.336 276.819 C 182.595 275.543, 179.265 273.038, 176.936 271.250 C 172.420 267.785, 170 267.134, 170 269.383 M 239.400 298.161 C 238.547 299.542, 240.709 301.712, 246.924 305.716 C 249.991 307.691, 253.885 310.207, 255.578 311.305 C 257.271 312.404, 259.071 314.247, 259.578 315.402 C 260.650 317.841, 265.772 318.728, 268.954 317.025 C 271.461 315.683, 271.557 314.167, 269.250 312.317 C 265.712 309.480, 239.954 297.265, 239.400 298.161 M 207.750 335.689 C 205.182 336.360, 205.590 337.144, 210.383 340.753 C 214.670 343.981, 223.578 347.379, 225.171 346.394 C 226.931 345.307, 225.876 343.186, 223.250 342.534 C 218.365 341.322, 211 337.547, 211 336.256 C 211 334.961, 210.722 334.913, 207.750 335.689 M 187 354.863 C 187 355.371, 187.590 356.012, 188.311 356.289 C 189.031 356.566, 190.159 358.587, 190.816 360.781 C 192.051 364.901, 194.885 366.715, 196.916 364.684 C 198.707 362.893, 198.156 361.141, 195.250 359.380 C 193.738 358.463, 191.262 356.864, 189.750 355.827 C 188.238 354.789, 187 354.355, 187 354.863" stroke="none" fill="black" fill-rule="evenodd"/>
</svg>